<mxfile host="app.diagrams.net" modified="2021-11-25T10:37:54.660Z" agent="5.0 (Macintosh; Intel Mac OS X 10_15_7) AppleWebKit/537.36 (KHTML, like Gecko) Chrome/96.0.4664.55 Safari/537.36" etag="Xng1owlraE5mvEw1YyOX" version="15.8.6" type="github">
  <diagram id="lMNd0b-DniXH8U6d8WW7" name="Page-1">
    <mxGraphModel dx="2066" dy="769" grid="1" gridSize="10" guides="1" tooltips="1" connect="1" arrows="1" fold="1" page="1" pageScale="1" pageWidth="850" pageHeight="1100" math="0" shadow="0">
      <root>
        <mxCell id="0" />
        <mxCell id="1" parent="0" />
        <mxCell id="Afmu1e2ez_ZusAOGPeaA-10" style="edgeStyle=orthogonalEdgeStyle;curved=1;orthogonalLoop=1;jettySize=auto;html=1;exitX=1;exitY=0.5;exitDx=0;exitDy=0;entryX=0;entryY=0.5;entryDx=0;entryDy=0;" edge="1" parent="1" source="Afmu1e2ez_ZusAOGPeaA-2" target="Afmu1e2ez_ZusAOGPeaA-6">
          <mxGeometry relative="1" as="geometry" />
        </mxCell>
        <mxCell id="Afmu1e2ez_ZusAOGPeaA-14" value="Grad" style="edgeLabel;html=1;align=center;verticalAlign=middle;resizable=0;points=[];" vertex="1" connectable="0" parent="Afmu1e2ez_ZusAOGPeaA-10">
          <mxGeometry x="-0.0471" y="1" relative="1" as="geometry">
            <mxPoint as="offset" />
          </mxGeometry>
        </mxCell>
        <mxCell id="Afmu1e2ez_ZusAOGPeaA-2" value="a" style="ellipse;whiteSpace=wrap;html=1;aspect=fixed;" vertex="1" parent="1">
          <mxGeometry x="240" y="130" width="80" height="80" as="geometry" />
        </mxCell>
        <mxCell id="Afmu1e2ez_ZusAOGPeaA-8" style="edgeStyle=orthogonalEdgeStyle;orthogonalLoop=1;jettySize=auto;html=1;exitX=0.5;exitY=0;exitDx=0;exitDy=0;entryX=0.5;entryY=1;entryDx=0;entryDy=0;curved=1;" edge="1" parent="1" source="Afmu1e2ez_ZusAOGPeaA-3" target="Afmu1e2ez_ZusAOGPeaA-2">
          <mxGeometry relative="1" as="geometry" />
        </mxCell>
        <mxCell id="Afmu1e2ez_ZusAOGPeaA-19" value="Grad" style="edgeLabel;html=1;align=center;verticalAlign=middle;resizable=0;points=[];" vertex="1" connectable="0" parent="Afmu1e2ez_ZusAOGPeaA-8">
          <mxGeometry x="-0.125" y="2" relative="1" as="geometry">
            <mxPoint as="offset" />
          </mxGeometry>
        </mxCell>
        <mxCell id="Afmu1e2ez_ZusAOGPeaA-3" value="e" style="ellipse;whiteSpace=wrap;html=1;aspect=fixed;" vertex="1" parent="1">
          <mxGeometry x="240" y="290" width="80" height="80" as="geometry" />
        </mxCell>
        <mxCell id="Afmu1e2ez_ZusAOGPeaA-13" style="edgeStyle=orthogonalEdgeStyle;curved=1;orthogonalLoop=1;jettySize=auto;html=1;exitX=0;exitY=0.5;exitDx=0;exitDy=0;entryX=1;entryY=0.5;entryDx=0;entryDy=0;" edge="1" parent="1" source="Afmu1e2ez_ZusAOGPeaA-4" target="Afmu1e2ez_ZusAOGPeaA-3">
          <mxGeometry relative="1" as="geometry" />
        </mxCell>
        <mxCell id="Afmu1e2ez_ZusAOGPeaA-18" value="Grad" style="edgeLabel;html=1;align=center;verticalAlign=middle;resizable=0;points=[];" vertex="1" connectable="0" parent="Afmu1e2ez_ZusAOGPeaA-13">
          <mxGeometry x="-0.08" y="2" relative="1" as="geometry">
            <mxPoint as="offset" />
          </mxGeometry>
        </mxCell>
        <mxCell id="Afmu1e2ez_ZusAOGPeaA-4" value="d" style="ellipse;whiteSpace=wrap;html=1;aspect=fixed;" vertex="1" parent="1">
          <mxGeometry x="370" y="290" width="80" height="80" as="geometry" />
        </mxCell>
        <mxCell id="Afmu1e2ez_ZusAOGPeaA-12" style="edgeStyle=orthogonalEdgeStyle;curved=1;orthogonalLoop=1;jettySize=auto;html=1;exitX=0;exitY=0.5;exitDx=0;exitDy=0;" edge="1" parent="1" source="Afmu1e2ez_ZusAOGPeaA-5" target="Afmu1e2ez_ZusAOGPeaA-4">
          <mxGeometry relative="1" as="geometry" />
        </mxCell>
        <mxCell id="Afmu1e2ez_ZusAOGPeaA-16" value="Grad" style="edgeLabel;html=1;align=center;verticalAlign=middle;resizable=0;points=[];" vertex="1" connectable="0" parent="Afmu1e2ez_ZusAOGPeaA-12">
          <mxGeometry x="-0.2" relative="1" as="geometry">
            <mxPoint as="offset" />
          </mxGeometry>
        </mxCell>
        <mxCell id="Afmu1e2ez_ZusAOGPeaA-5" value="c" style="ellipse;whiteSpace=wrap;html=1;aspect=fixed;" vertex="1" parent="1">
          <mxGeometry x="500" y="290" width="80" height="80" as="geometry" />
        </mxCell>
        <mxCell id="Afmu1e2ez_ZusAOGPeaA-11" style="edgeStyle=orthogonalEdgeStyle;orthogonalLoop=1;jettySize=auto;html=1;exitX=0.5;exitY=1;exitDx=0;exitDy=0;rounded=0;" edge="1" parent="1" source="Afmu1e2ez_ZusAOGPeaA-6" target="Afmu1e2ez_ZusAOGPeaA-5">
          <mxGeometry relative="1" as="geometry" />
        </mxCell>
        <mxCell id="Afmu1e2ez_ZusAOGPeaA-15" value="Grad" style="edgeLabel;html=1;align=center;verticalAlign=middle;resizable=0;points=[];" vertex="1" connectable="0" parent="Afmu1e2ez_ZusAOGPeaA-11">
          <mxGeometry x="-0.1" y="2" relative="1" as="geometry">
            <mxPoint as="offset" />
          </mxGeometry>
        </mxCell>
        <mxCell id="Afmu1e2ez_ZusAOGPeaA-6" value="b" style="ellipse;whiteSpace=wrap;html=1;aspect=fixed;" vertex="1" parent="1">
          <mxGeometry x="500" y="130" width="80" height="80" as="geometry" />
        </mxCell>
      </root>
    </mxGraphModel>
  </diagram>
</mxfile>
